<svg width="92" height="85" viewBox="0 0 92 85" fill="none" xmlns="http://www.w3.org/2000/svg">
<g clip-path="url(#clip0)">
<path d="M31.9499 84.3947C16.3939 81.951 4.72638 71.5347 0.910713 56.6841C-2.68927 42.673 4.73285 25.1961 17.0161 18.7607C24.8276 14.6681 32.421 14.4234 47.1457 17.7899L48.6947 18.1443L47.08 16.0238C43.3102 11.0727 42.0204 6.89184 43.4429 4.23387C44.1881 2.84155 47.7762 0.896726 50.8081 0.241846C52.8686 -0.203594 52.905 -0.175715 52.5399 1.56401C51.5269 6.39144 50.731 14.1649 51.0995 15.6333C51.8439 18.5994 53.422 18.8455 59.7765 16.9863C62.9128 16.0687 66.5973 15.0432 67.9642 14.7074C70.8952 13.9875 77.8728 14.4784 82.2545 15.7127L85.3611 16.588L81.9439 16.6871C80.0644 16.7385 77.9988 16.9939 77.3537 17.247C76.3956 17.6228 76.7057 17.9082 79.0448 18.8014C82.8429 20.2519 87.4642 24.4942 89.7172 28.5985C91.3894 31.6448 91.552 32.4907 91.6696 38.756L91.7981 45.5905L91.2227 40.9422C90.5036 35.1311 88.3707 30.6748 84.6806 27.2733C82.1448 24.9358 75.3914 21.1806 74.7954 21.7766C74.6663 21.9058 75.3847 23.6816 76.3905 25.7236C77.6098 28.1981 78.3305 30.7831 78.5516 33.4748L78.8833 37.5134L77.6309 34.4068C76.9418 32.6981 75.5342 30.277 74.5023 29.0263C71.2269 25.0566 64.243 22.4972 60.5515 23.9138C59.6774 24.2492 59.7169 24.5464 60.8883 26.4415L62.2156 28.5891L59.8179 27.304C58.4992 26.5973 56.5774 26.0192 55.5471 26.0194C49.9864 26.0204 38.8963 34.6415 35.3657 41.707C34.3292 43.7812 33.4811 46.0093 33.4811 46.6584C33.4811 48.8724 32.3115 47.1229 31.8834 44.2683C31.0554 38.7464 33.2276 30.5022 36.6731 26.0905C38.6223 23.5948 38.1952 23.3205 33.0384 23.7564C26.2559 24.3295 21.6474 26.6262 16.0539 32.2196C11.285 36.9885 11.0513 36.6985 14.2593 29.9918C15.2573 27.9053 17.4896 24.7599 19.22 23.002C20.9504 21.244 22.141 19.8084 21.8658 19.8116C20.3955 19.8263 14.6618 23.8617 12.1742 26.6286C7.38536 31.9549 5.38243 39.6563 6.27309 49.3185C7.40613 61.6099 16.6224 71.3539 31.9278 76.4421C35.4177 77.6023 37.6275 77.8891 43.1116 77.8935C49.2266 77.8985 50.3187 77.724 53.4854 76.2401C57.7111 74.2593 62.0144 70.1321 64.1664 65.9961C66.2289 62.0321 66.2346 63.0558 64.1743 67.4109C63.2859 69.2889 61.0734 72.3471 59.2576 74.2069C55.6001 77.9532 55.7216 78.0545 62.2216 76.6771C68.4271 75.3622 74.3553 71.9623 80.0957 66.4265C82.8209 63.7984 85.0506 61.8488 85.0506 62.0942C85.0506 63.061 79.4662 69.995 76.2803 72.9839C67.6087 81.1194 46.1916 86.6324 31.95 84.3951L31.9499 84.3947Z" fill="white"/>
</g>
<defs>
<clipPath id="clip0">
<rect width="91.7981" height="84.8962" fill="white"/>
</clipPath>
</defs>
</svg>
